<?xml version="1.0" encoding="UTF-8" standalone="no"?>
<!DOCTYPE svg PUBLIC "-//W3C//DTD SVG 1.1//EN"
 "http://www.w3.org/Graphics/SVG/1.1/DTD/svg11.dtd">
<!-- Generated by graphviz version 2.43.0 (0)
 -->
<!-- Title: grammar Pages: 1 -->
<svg width="232pt" height="188pt"
 viewBox="0.00 0.00 232.34 188.00" xmlns="http://www.w3.org/2000/svg" xmlns:xlink="http://www.w3.org/1999/xlink">
<g id="graph0" class="graph" transform="scale(1 1) rotate(0) translate(4 184)">
<title>grammar</title>
<polygon fill="white" stroke="transparent" points="-4,4 -4,-184 228.34,-184 228.34,4 -4,4"/>
<!-- program -->
<g id="node1" class="node">
<title>program</title>
<ellipse fill="none" stroke="black" cx="113.95" cy="-162" rx="50.89" ry="18"/>
<text text-anchor="middle" x="113.95" y="-158.3" font-family="Times,serif" font-size="14.00">program</text>
</g>
<!-- global_decl_list -->
<g id="node2" class="node">
<title>global_decl_list</title>
<ellipse fill="none" stroke="black" cx="113.95" cy="-90" rx="81.49" ry="18"/>
<text text-anchor="middle" x="113.95" y="-86.3" font-family="Times,serif" font-size="14.00">global_decl_list</text>
</g>
<!-- program&#45;&gt;global_decl_list -->
<g id="edge1" class="edge">
<title>program&#45;&gt;global_decl_list</title>
<path fill="none" stroke="black" d="M113.95,-143.7C113.95,-135.98 113.95,-126.71 113.95,-118.11"/>
<polygon fill="black" stroke="black" points="117.45,-118.1 113.95,-108.1 110.45,-118.1 117.45,-118.1"/>
</g>
<!-- func_decl -->
<g id="node3" class="node">
<title>func_decl</title>
<ellipse fill="none" stroke="black" cx="53.95" cy="-18" rx="53.89" ry="18"/>
<text text-anchor="middle" x="53.95" y="-14.3" font-family="Times,serif" font-size="14.00">func_decl</text>
</g>
<!-- global_decl_list&#45;&gt;func_decl -->
<g id="edge2" class="edge">
<title>global_decl_list&#45;&gt;func_decl</title>
<path fill="none" stroke="black" d="M99.42,-72.05C92.05,-63.46 82.97,-52.86 74.86,-43.4"/>
<polygon fill="black" stroke="black" points="77.5,-41.1 68.34,-35.79 72.19,-45.66 77.5,-41.1"/>
</g>
<!-- var_decl -->
<g id="node4" class="node">
<title>var_decl</title>
<ellipse fill="none" stroke="black" cx="174.95" cy="-18" rx="49.29" ry="18"/>
<text text-anchor="middle" x="174.95" y="-14.3" font-family="Times,serif" font-size="14.00">var_decl</text>
</g>
<!-- global_decl_list&#45;&gt;var_decl -->
<g id="edge3" class="edge">
<title>global_decl_list&#45;&gt;var_decl</title>
<path fill="none" stroke="black" d="M128.71,-72.05C136.31,-63.33 145.71,-52.54 154.05,-42.98"/>
<polygon fill="black" stroke="black" points="156.8,-45.15 160.73,-35.31 151.53,-40.55 156.8,-45.15"/>
</g>
</g>
</svg>
